<svg xmlns="http://www.w3.org/2000/svg" xmlns:xlink="http://www.w3.org/1999/xlink" width="500" zoomAndPan="magnify" viewBox="0 0 375 374.999991" height="500" preserveAspectRatio="xMidYMid meet" version="1.2"><defs><clipPath id="b726b6b105"><path d="M 112.5 122 L 138 122 L 138 199.914062 L 112.5 199.914062 Z M 112.5 122 "/></clipPath><clipPath id="3e90b54216"><path d="M 237.703125 122.40625 L 262.496094 122.40625 L 262.496094 199.910156 L 237.703125 199.910156 Z M 237.703125 122.40625 "/></clipPath><clipPath id="68604227e8"><path d="M 175 104.664062 L 200 104.664062 L 200 131 L 175 131 Z M 175 104.664062 "/></clipPath></defs><g id="e025cfcba3"><rect x="0" width="375" y="0" height="374.999991" style="fill:#ffffff;fill-opacity:1;stroke:none;"/><rect x="0" width="375" y="0" height="374.999991" style="fill:#d9d9d9;fill-opacity:1;stroke:none;"/><path style=" stroke:none;fill-rule:nonzero;fill:#4a87ce;fill-opacity:1;" d="M 163.644531 148.097656 C 161.804688 148.097656 160.089844 148.445312 158.5 149.140625 C 156.90625 149.835938 155.527344 150.773438 154.359375 151.953125 C 153.191406 153.132812 152.265625 154.519531 151.582031 156.109375 C 150.898438 157.699219 150.558594 159.390625 150.558594 161.179688 C 150.558594 162.96875 150.898438 164.660156 151.582031 166.25 C 152.265625 167.839844 153.191406 169.226562 154.359375 170.40625 C 155.527344 171.585938 156.90625 172.523438 158.5 173.21875 C 160.089844 173.914062 161.804688 174.261719 163.644531 174.261719 C 165.457031 174.261719 167.160156 173.914062 168.75 173.21875 C 170.339844 172.523438 171.726562 171.578125 172.90625 170.386719 C 174.085938 169.195312 175.015625 167.808594 175.699219 166.230469 C 176.382812 164.652344 176.726562 162.96875 176.726562 161.179688 C 176.726562 159.390625 176.382812 157.707031 175.699219 156.128906 C 175.015625 154.550781 174.085938 153.164062 172.90625 151.972656 C 171.726562 150.78125 170.339844 149.835938 168.75 149.140625 C 167.160156 148.445312 165.457031 148.097656 163.644531 148.097656 Z M 184.515625 161.179688 C 184.515625 166.996094 182.476562 171.914062 178.402344 175.941406 C 174.277344 180.015625 169.359375 182.054688 163.644531 182.054688 C 157.875 182.054688 152.957031 180.015625 148.882812 175.941406 C 144.804688 171.867188 142.769531 166.945312 142.769531 161.179688 C 142.769531 155.414062 144.804688 150.496094 148.882812 146.417969 C 152.957031 142.34375 157.875 140.304688 163.644531 140.304688 C 169.359375 140.304688 174.277344 142.34375 178.402344 146.417969 C 180.441406 148.457031 181.964844 150.707031 182.96875 153.164062 C 183.976562 155.625 184.492188 158.296875 184.515625 161.179688 "/><path style=" stroke:none;fill-rule:nonzero;fill:#4a87ce;fill-opacity:1;" d="M 211.355469 148.097656 C 209.515625 148.097656 207.800781 148.445312 206.210938 149.140625 C 204.621094 149.835938 203.242188 150.773438 202.074219 151.953125 C 200.90625 153.132812 199.980469 154.519531 199.296875 156.109375 C 198.613281 157.699219 198.273438 159.390625 198.273438 161.179688 C 198.273438 162.96875 198.613281 164.660156 199.296875 166.25 C 199.980469 167.839844 200.90625 169.226562 202.074219 170.40625 C 203.242188 171.585938 204.621094 172.523438 206.210938 173.21875 C 207.800781 173.914062 209.515625 174.261719 211.355469 174.261719 C 213.167969 174.261719 214.871094 173.914062 216.460938 173.21875 C 218.050781 172.523438 219.4375 171.578125 220.617188 170.386719 C 221.796875 169.195312 222.730469 167.808594 223.414062 166.230469 C 224.097656 164.652344 224.4375 162.96875 224.4375 161.179688 C 224.4375 159.390625 224.097656 157.707031 223.414062 156.128906 C 222.730469 154.550781 221.796875 153.164062 220.617188 151.972656 C 219.4375 150.78125 218.050781 149.835938 216.460938 149.140625 C 214.871094 148.445312 213.167969 148.097656 211.355469 148.097656 Z M 232.230469 161.179688 C 232.230469 166.996094 230.191406 171.914062 226.117188 175.941406 C 221.992188 180.015625 217.070312 182.054688 211.355469 182.054688 C 205.589844 182.054688 200.667969 180.015625 196.59375 175.941406 C 192.519531 171.867188 190.480469 166.945312 190.480469 161.179688 C 190.480469 155.414062 192.519531 150.496094 196.59375 146.417969 C 200.667969 142.34375 205.589844 140.304688 211.355469 140.304688 C 217.070312 140.304688 221.992188 142.34375 226.117188 146.417969 C 228.152344 148.457031 229.675781 150.707031 230.683594 153.164062 C 231.6875 155.625 232.203125 158.296875 232.230469 161.179688 "/><g clip-rule="nonzero" clip-path="url(#b726b6b105)"><path style=" stroke:none;fill-rule:nonzero;fill:#211d1d;fill-opacity:1;" d="M 133.375 122.449219 C 134.492188 122.449219 135.417969 122.828125 136.152344 123.585938 C 136.882812 124.34375 137.25 125.269531 137.25 126.363281 C 137.25 127.484375 136.882812 128.410156 136.152344 129.140625 C 135.417969 129.875 134.492188 130.242188 133.375 130.242188 C 130.292969 130.242188 128.753906 131.78125 128.753906 134.863281 L 128.753906 152.679688 C 128.753906 156.257812 127.933594 159.09375 126.292969 161.179688 C 127.933594 163.265625 128.753906 166.101562 128.753906 169.679688 L 128.753906 187.496094 C 128.753906 190.578125 130.292969 192.121094 133.375 192.121094 C 134.492188 192.121094 135.417969 192.484375 136.152344 193.21875 C 136.882812 193.953125 137.25 194.875 137.25 195.996094 C 137.25 197.113281 136.882812 198.046875 136.152344 198.792969 C 135.417969 199.535156 134.492188 199.910156 133.375 199.910156 C 125.097656 199.910156 120.960938 195.773438 120.960938 187.496094 L 120.960938 169.679688 C 120.960938 166.597656 119.433594 165.054688 116.375 165.054688 C 115.257812 165.054688 114.332031 164.691406 113.597656 163.957031 C 112.867188 163.222656 112.5 162.296875 112.5 161.179688 C 112.5 160.0625 112.867188 159.136719 113.597656 158.402344 C 114.332031 157.671875 115.257812 157.304688 116.375 157.304688 C 119.433594 157.304688 120.960938 155.761719 120.960938 152.679688 L 120.960938 134.863281 C 120.960938 126.585938 125.097656 122.449219 133.375 122.449219 "/></g><g clip-rule="nonzero" clip-path="url(#3e90b54216)"><path style=" stroke:none;fill-rule:nonzero;fill:#211d1d;fill-opacity:1;" d="M 254.035156 134.863281 L 254.035156 152.679688 C 254.035156 155.761719 255.5625 157.304688 258.621094 157.304688 C 259.738281 157.304688 260.664062 157.671875 261.398438 158.402344 C 262.132812 159.136719 262.496094 160.0625 262.496094 161.179688 C 262.496094 162.296875 262.132812 163.222656 261.398438 163.957031 C 260.664062 164.691406 259.738281 165.054688 258.621094 165.054688 C 255.5625 165.054688 254.035156 166.597656 254.035156 169.679688 L 254.035156 187.496094 C 254.035156 195.773438 249.898438 199.910156 241.621094 199.910156 C 240.503906 199.910156 239.578125 199.535156 238.84375 198.792969 C 238.113281 198.046875 237.746094 197.113281 237.746094 195.996094 C 237.746094 194.875 238.113281 193.953125 238.84375 193.21875 C 239.578125 192.484375 240.503906 192.121094 241.621094 192.121094 C 244.703125 192.121094 246.246094 190.578125 246.246094 187.496094 L 246.246094 169.679688 C 246.246094 166.101562 247.066406 163.265625 248.707031 161.179688 C 247.066406 159.09375 246.246094 156.257812 246.246094 152.679688 L 246.246094 134.863281 C 246.246094 131.78125 244.703125 130.242188 241.621094 130.242188 C 240.503906 130.242188 239.578125 129.875 238.84375 129.140625 C 238.113281 128.410156 237.746094 127.484375 237.746094 126.363281 C 237.746094 125.269531 238.113281 124.34375 238.84375 123.585938 C 239.578125 122.828125 240.503906 122.449219 241.621094 122.449219 C 249.898438 122.449219 254.035156 126.585938 254.035156 134.863281 "/></g><g clip-rule="nonzero" clip-path="url(#68604227e8)"><path style=" stroke:none;fill-rule:nonzero;fill:#211d1d;fill-opacity:1;" d="M 199.167969 125.539062 C 199.167969 126.1875 199.042969 126.789062 198.792969 127.347656 C 198.542969 127.90625 198.214844 128.398438 197.804688 128.820312 C 197.394531 129.242188 196.902344 129.574219 196.332031 129.808594 C 195.761719 130.046875 195.164062 130.164062 194.542969 130.164062 C 193.398438 130.164062 192.417969 129.765625 191.597656 128.96875 C 190.777344 128.175781 190.109375 127.199219 189.585938 126.042969 C 189.0625 124.886719 188.683594 123.695312 188.449219 122.464844 C 188.214844 121.234375 188.09375 120.085938 188.09375 119.019531 C 188.09375 114.617188 189.972656 110.171875 193.722656 105.671875 C 194.394531 105 195.152344 104.667969 195.996094 104.667969 C 196.867188 104.667969 197.613281 104.976562 198.234375 105.597656 C 198.855469 106.21875 199.167969 106.964844 199.167969 107.835938 C 199.167969 108.257812 199.078125 108.691406 198.90625 109.140625 C 197.785156 111.875 197.226562 114.46875 197.226562 116.929688 C 197.226562 119.265625 197.734375 121.527344 198.753906 123.714844 C 199.03125 124.335938 199.167969 124.945312 199.167969 125.539062 Z M 186.902344 125.539062 C 186.902344 126.1875 186.777344 126.789062 186.53125 127.347656 C 186.28125 127.90625 185.953125 128.398438 185.542969 128.820312 C 185.132812 129.242188 184.640625 129.574219 184.070312 129.808594 C 183.496094 130.046875 182.902344 130.164062 182.28125 130.164062 C 181.136719 130.164062 180.15625 129.765625 179.335938 128.96875 C 178.515625 128.175781 177.84375 127.199219 177.324219 126.042969 C 176.800781 124.886719 176.421875 123.695312 176.183594 122.464844 C 175.949219 121.234375 175.832031 120.085938 175.832031 119.019531 C 175.832031 114.617188 177.707031 110.171875 181.460938 105.671875 C 182.128906 105 182.886719 104.667969 183.734375 104.667969 C 184.601562 104.667969 185.347656 104.976562 185.96875 105.597656 C 186.589844 106.21875 186.902344 106.964844 186.902344 107.835938 C 186.902344 108.257812 186.816406 108.691406 186.640625 109.140625 C 185.523438 111.875 184.964844 114.46875 184.964844 116.929688 C 184.964844 119.265625 185.472656 121.527344 186.492188 123.714844 C 186.765625 124.335938 186.902344 124.945312 186.902344 125.539062 "/></g><g style="fill:#4a87ce;fill-opacity:1;"><g transform="translate(97.998031, 247.155334)"><path style="stroke:none" d="M 6.734375 0.09375 C 6.242188 0.03125 5.300781 0 3.90625 0 L 2.6875 0 L 2.6875 -20.296875 C 3.34375 -20.265625 4.0625 -20.25 4.84375 -20.25 C 5.625 -20.25 6.175781 -20.285156 6.5 -20.359375 L 11.609375 -11.671875 L 16.53125 -20.359375 C 16.851562 -20.285156 17.46875 -20.25 18.375 -20.25 C 19.289062 -20.25 20.078125 -20.265625 20.734375 -20.296875 L 20.734375 0 L 19.515625 0 C 18.117188 0 17.179688 0.03125 16.703125 0.09375 L 16.703125 -13.546875 L 11.71875 -4.640625 L 6.734375 -12.828125 Z M 6.734375 0.09375 "/></g></g><g style="fill:#4a87ce;fill-opacity:1;"><g transform="translate(121.422598, 247.155334)"><path style="stroke:none" d="M 4.265625 -2.40625 C 3.347656 -3.289062 2.625 -4.347656 2.09375 -5.578125 C 1.5625 -6.816406 1.296875 -8.175781 1.296875 -9.65625 C 1.296875 -11.132812 1.539062 -12.53125 2.03125 -13.84375 C 2.53125 -15.164062 3.242188 -16.328125 4.171875 -17.328125 C 5.097656 -18.335938 6.210938 -19.140625 7.515625 -19.734375 C 8.828125 -20.328125 10.296875 -20.625 11.921875 -20.625 C 14.722656 -20.625 17.082031 -19.738281 19 -17.96875 C 21.039062 -16.082031 22.0625 -13.535156 22.0625 -10.328125 C 22.0625 -7.222656 21.007812 -4.644531 18.90625 -2.59375 C 17.601562 -1.320312 16.054688 -0.445312 14.265625 0.03125 C 13.378906 0.257812 12.34375 0.375 11.15625 0.375 C 9.976562 0.375 8.765625 0.132812 7.515625 -0.34375 C 6.273438 -0.832031 5.191406 -1.519531 4.265625 -2.40625 Z M 5.53125 -9.859375 C 5.53125 -8.921875 5.6875 -8.054688 6 -7.265625 C 6.3125 -6.472656 6.75 -5.789062 7.3125 -5.21875 C 8.5 -4.019531 10.023438 -3.421875 11.890625 -3.421875 C 13.660156 -3.421875 15.085938 -3.992188 16.171875 -5.140625 C 17.265625 -6.328125 17.8125 -7.945312 17.8125 -10 C 17.8125 -11.925781 17.285156 -13.535156 16.234375 -14.828125 C 15.109375 -16.203125 13.566406 -16.890625 11.609375 -16.890625 C 9.710938 -16.890625 8.207031 -16.191406 7.09375 -14.796875 C 6.050781 -13.484375 5.53125 -11.835938 5.53125 -9.859375 Z M 5.53125 -9.859375 "/></g></g><g style="fill:#4a87ce;fill-opacity:1;"><g transform="translate(144.786283, 247.155334)"><path style="stroke:none" d="M 14.84375 -19.109375 L 14.546875 -14.640625 L 14.4375 -14.609375 C 13.6875 -15.734375 12.410156 -16.460938 10.609375 -16.796875 C 10.035156 -16.910156 9.488281 -16.96875 8.96875 -16.96875 C 8.445312 -16.96875 8 -16.921875 7.625 -16.828125 C 7.257812 -16.742188 6.945312 -16.613281 6.6875 -16.4375 C 6.125 -16.070312 5.84375 -15.59375 5.84375 -15 C 5.84375 -14.226562 6.085938 -13.648438 6.578125 -13.265625 C 7.179688 -12.804688 8.1875 -12.484375 9.59375 -12.296875 C 11.007812 -12.109375 12.144531 -11.847656 13 -11.515625 C 13.851562 -11.191406 14.550781 -10.785156 15.09375 -10.296875 C 16.132812 -9.359375 16.65625 -8.035156 16.65625 -6.328125 C 16.65625 -4.097656 15.8125 -2.378906 14.125 -1.171875 C 12.6875 -0.140625 10.867188 0.375 8.671875 0.375 C 6.910156 0.375 5.164062 0.0390625 3.4375 -0.625 C 2.875 -0.84375 2.378906 -1.101562 1.953125 -1.40625 L 2.109375 -6.484375 L 2.171875 -6.53125 C 3.429688 -4.351562 5.5 -3.265625 8.375 -3.265625 C 10.414062 -3.265625 11.765625 -3.757812 12.421875 -4.75 C 12.640625 -5.082031 12.75 -5.453125 12.75 -5.859375 C 12.75 -6.273438 12.679688 -6.617188 12.546875 -6.890625 C 12.421875 -7.160156 12.207031 -7.390625 11.90625 -7.578125 C 11.3125 -7.960938 10.316406 -8.21875 8.921875 -8.34375 C 7.535156 -8.476562 6.398438 -8.726562 5.515625 -9.09375 C 4.640625 -9.46875 3.9375 -9.921875 3.40625 -10.453125 C 2.457031 -11.429688 1.984375 -12.789062 1.984375 -14.53125 C 1.984375 -16.34375 2.613281 -17.804688 3.875 -18.921875 C 5.164062 -20.054688 6.90625 -20.625 9.09375 -20.625 C 11.28125 -20.625 13.195312 -20.117188 14.84375 -19.109375 Z M 14.84375 -19.109375 "/></g></g><g style="fill:#4a87ce;fill-opacity:1;"><g transform="translate(162.944507, 247.155334)"><path style="stroke:none" d="M 9.921875 0.09375 C 9.429688 0.03125 8.179688 0 6.171875 0 L 5.671875 0 L 5.671875 -16.828125 L 2.65625 -16.828125 C 1.769531 -16.828125 1.242188 -16.78125 1.078125 -16.6875 C 0.921875 -16.601562 0.796875 -16.523438 0.703125 -16.453125 L 0.65625 -16.46875 L 0.65625 -20.359375 L 0.703125 -20.40625 C 1.035156 -20.300781 1.9375 -20.25 3.40625 -20.25 L 12.953125 -20.25 C 13.847656 -20.25 14.375 -20.289062 14.53125 -20.375 C 14.695312 -20.46875 14.828125 -20.550781 14.921875 -20.625 L 14.96875 -20.609375 L 14.96875 -16.71875 L 14.921875 -16.671875 C 14.578125 -16.773438 13.671875 -16.828125 12.203125 -16.828125 L 9.921875 -16.828125 Z M 9.921875 0.09375 "/></g></g><g style="fill:#4a87ce;fill-opacity:1;"><g transform="translate(178.560885, 247.155334)"><path style="stroke:none" d="M 21.0625 2.640625 L 21.0625 5.078125 L -0.4375 5.078125 L -0.4375 2.640625 Z M 21.0625 2.640625 "/></g></g><g style="fill:#211d1d;fill-opacity:1;"><g transform="translate(199.165993, 247.155334)"><path style="stroke:none" d="M 11.6875 -20.625 C 13.582031 -20.625 15.203125 -20.296875 16.546875 -19.640625 L 16.546875 -14.984375 L 16.515625 -14.953125 C 15.941406 -15.816406 14.742188 -16.394531 12.921875 -16.6875 C 12.378906 -16.769531 11.695312 -16.8125 10.875 -16.8125 C 10.0625 -16.8125 9.257812 -16.65625 8.46875 -16.34375 C 7.675781 -16.039062 7.023438 -15.601562 6.515625 -15.03125 C 5.523438 -13.925781 5.03125 -12.347656 5.03125 -10.296875 C 5.03125 -7.921875 5.65625 -6.148438 6.90625 -4.984375 C 7.945312 -4.003906 9.316406 -3.515625 11.015625 -3.515625 C 12.941406 -3.515625 14.503906 -3.925781 15.703125 -4.75 C 16.140625 -5.039062 16.507812 -5.40625 16.8125 -5.84375 L 16.859375 -5.8125 L 16.859375 -1.546875 C 15.304688 -0.265625 13.21875 0.375 10.59375 0.375 C 7.5 0.375 5.070312 -0.609375 3.3125 -2.578125 C 1.632812 -4.453125 0.796875 -6.9375 0.796875 -10.03125 C 0.796875 -13.3125 1.71875 -15.894531 3.5625 -17.78125 C 5.425781 -19.675781 8.132812 -20.625 11.6875 -20.625 Z M 11.6875 -20.625 "/></g></g><g style="fill:#211d1d;fill-opacity:1;"><g transform="translate(217.248115, 247.155334)"><path style="stroke:none" d="M 4.265625 -2.40625 C 3.347656 -3.289062 2.625 -4.347656 2.09375 -5.578125 C 1.5625 -6.816406 1.296875 -8.175781 1.296875 -9.65625 C 1.296875 -11.132812 1.539062 -12.53125 2.03125 -13.84375 C 2.53125 -15.164062 3.242188 -16.328125 4.171875 -17.328125 C 5.097656 -18.335938 6.210938 -19.140625 7.515625 -19.734375 C 8.828125 -20.328125 10.296875 -20.625 11.921875 -20.625 C 14.722656 -20.625 17.082031 -19.738281 19 -17.96875 C 21.039062 -16.082031 22.0625 -13.535156 22.0625 -10.328125 C 22.0625 -7.222656 21.007812 -4.644531 18.90625 -2.59375 C 17.601562 -1.320312 16.054688 -0.445312 14.265625 0.03125 C 13.378906 0.257812 12.34375 0.375 11.15625 0.375 C 9.976562 0.375 8.765625 0.132812 7.515625 -0.34375 C 6.273438 -0.832031 5.191406 -1.519531 4.265625 -2.40625 Z M 5.53125 -9.859375 C 5.53125 -8.921875 5.6875 -8.054688 6 -7.265625 C 6.3125 -6.472656 6.75 -5.789062 7.3125 -5.21875 C 8.5 -4.019531 10.023438 -3.421875 11.890625 -3.421875 C 13.660156 -3.421875 15.085938 -3.992188 16.171875 -5.140625 C 17.265625 -6.328125 17.8125 -7.945312 17.8125 -10 C 17.8125 -11.925781 17.285156 -13.535156 16.234375 -14.828125 C 15.109375 -16.203125 13.566406 -16.890625 11.609375 -16.890625 C 9.710938 -16.890625 8.207031 -16.191406 7.09375 -14.796875 C 6.050781 -13.484375 5.53125 -11.835938 5.53125 -9.859375 Z M 5.53125 -9.859375 "/></g></g><g style="fill:#211d1d;fill-opacity:1;"><g transform="translate(240.611799, 247.155334)"><path style="stroke:none" d="M 7.546875 0.375 C 5.898438 0.375 4.351562 0.242188 2.90625 -0.015625 L 2.90625 -20.375 C 4.25 -20.539062 5.804688 -20.625 7.578125 -20.625 C 9.347656 -20.625 10.945312 -20.378906 12.375 -19.890625 C 13.8125 -19.410156 15.015625 -18.726562 15.984375 -17.84375 C 17.929688 -16.050781 18.90625 -13.546875 18.90625 -10.328125 C 18.90625 -6.734375 17.816406 -4 15.640625 -2.125 C 13.691406 -0.457031 10.992188 0.375 7.546875 0.375 Z M 6.859375 -3.328125 C 7.523438 -3.210938 8.1875 -3.15625 8.84375 -3.15625 C 9.5 -3.15625 10.207031 -3.28125 10.96875 -3.53125 C 11.726562 -3.789062 12.390625 -4.195312 12.953125 -4.75 C 14.148438 -5.90625 14.75 -7.585938 14.75 -9.796875 C 14.75 -13.429688 13.425781 -15.664062 10.78125 -16.5 C 9.90625 -16.769531 8.894531 -16.90625 7.75 -16.90625 L 7.34375 -16.90625 C 7.1875 -16.90625 7.023438 -16.898438 6.859375 -16.890625 Z M 6.859375 -3.328125 "/></g></g><g style="fill:#211d1d;fill-opacity:1;"><g transform="translate(261.372753, 247.155334)"><path style="stroke:none" d="M 12.796875 -3.65625 C 13.429688 -3.65625 13.867188 -3.710938 14.109375 -3.828125 L 14.171875 -3.828125 L 14.015625 0 L 2.625 0 L 2.625 -20.34375 C 2.894531 -20.320312 3.195312 -20.304688 3.53125 -20.296875 L 4.59375 -20.28125 C 5.300781 -20.257812 6.070312 -20.25 6.90625 -20.25 C 9.226562 -20.25 11.53125 -20.285156 13.8125 -20.359375 C 13.695312 -19.472656 13.640625 -18.28125 13.640625 -16.78125 C 13.640625 -16.625 13.648438 -16.503906 13.671875 -16.421875 L 13.640625 -16.375 C 13.109375 -16.53125 12.359375 -16.609375 11.390625 -16.609375 L 6.59375 -16.609375 L 6.59375 -12.71875 L 10.203125 -12.71875 C 11.316406 -12.71875 11.984375 -12.75 12.203125 -12.8125 L 12.25 -9.0625 C 11.757812 -9.101562 11.128906 -9.125 10.359375 -9.125 L 6.59375 -9.125 L 6.59375 -3.65625 Z M 12.796875 -3.65625 "/></g></g><g style="fill:#737373;fill-opacity:1;"><g transform="translate(146.696334, 266.186935)"><path style="stroke:none" d="M 1.546875 0 L 1.546875 -6.921875 L 0.125 -6.921875 L 0.125 -7.703125 L 3.8125 -7.703125 L 3.8125 -6.921875 L 2.390625 -6.921875 L 2.390625 0 Z M 1.546875 0 "/></g></g><g style="fill:#737373;fill-opacity:1;"><g transform="translate(155.053576, 266.186935)"><path style="stroke:none" d="M 3.171875 -4.296875 L 3.171875 -3.515625 L 1.296875 -3.515625 L 1.296875 -0.78125 L 3.609375 -0.78125 L 3.609375 0 L 0.4375 0 L 0.4375 -7.703125 L 3.609375 -7.703125 L 3.609375 -6.921875 L 1.296875 -6.921875 L 1.296875 -4.296875 Z M 3.171875 -4.296875 "/></g></g><g style="fill:#737373;fill-opacity:1;"><g transform="translate(163.410818, 266.186935)"><path style="stroke:none" d="M 2.09375 -7.78125 C 2.6875 -7.78125 3.125 -7.601562 3.40625 -7.25 C 3.695312 -6.894531 3.84375 -6.425781 3.84375 -5.84375 L 3.84375 -5.140625 L 3.03125 -5.140625 L 3.03125 -5.890625 C 3.03125 -6.234375 2.957031 -6.503906 2.8125 -6.703125 C 2.664062 -6.898438 2.4375 -7 2.125 -7 C 1.8125 -7 1.582031 -6.898438 1.4375 -6.703125 C 1.289062 -6.503906 1.21875 -6.234375 1.21875 -5.890625 L 1.21875 -1.8125 C 1.21875 -1.457031 1.289062 -1.179688 1.4375 -0.984375 C 1.582031 -0.796875 1.8125 -0.703125 2.125 -0.703125 C 2.4375 -0.703125 2.664062 -0.796875 2.8125 -0.984375 C 2.957031 -1.179688 3.03125 -1.457031 3.03125 -1.8125 L 3.03125 -2.8125 L 3.84375 -2.8125 L 3.84375 -1.859375 C 3.84375 -1.273438 3.695312 -0.804688 3.40625 -0.453125 C 3.125 -0.0976562 2.6875 0.078125 2.09375 0.078125 C 1.507812 0.078125 1.078125 -0.0976562 0.796875 -0.453125 C 0.515625 -0.804688 0.375 -1.273438 0.375 -1.859375 L 0.375 -5.84375 C 0.375 -6.132812 0.40625 -6.398438 0.46875 -6.640625 C 0.539062 -6.878906 0.648438 -7.082031 0.796875 -7.25 C 0.941406 -7.414062 1.117188 -7.546875 1.328125 -7.640625 C 1.546875 -7.734375 1.800781 -7.78125 2.09375 -7.78125 Z M 2.09375 -7.78125 "/></g></g><g style="fill:#737373;fill-opacity:1;"><g transform="translate(171.987901, 266.186935)"><path style="stroke:none" d="M 1.296875 -3.46875 L 1.296875 0 L 0.4375 0 L 0.4375 -7.703125 L 1.296875 -7.703125 L 1.296875 -4.234375 L 3.1875 -4.234375 L 3.1875 -7.703125 L 4.046875 -7.703125 L 4.046875 0 L 3.1875 0 L 3.1875 -3.46875 Z M 1.296875 -3.46875 "/></g></g><g style="fill:#737373;fill-opacity:1;"><g transform="translate(180.872761, 266.186935)"><path style="stroke:none" d="M 1.203125 0 L 0.421875 0 L 0.421875 -7.703125 L 1.515625 -7.703125 L 3.296875 -2.140625 L 3.296875 -7.703125 L 4.0625 -7.703125 L 4.0625 0 L 3.171875 0 L 1.203125 -6.21875 Z M 1.203125 0 "/></g></g><g style="fill:#737373;fill-opacity:1;"><g transform="translate(189.768619, 266.186935)"><path style="stroke:none" d="M 0.375 -5.84375 C 0.375 -6.4375 0.519531 -6.90625 0.8125 -7.25 C 1.101562 -7.601562 1.546875 -7.78125 2.140625 -7.78125 C 2.734375 -7.78125 3.175781 -7.601562 3.46875 -7.25 C 3.757812 -6.90625 3.90625 -6.4375 3.90625 -5.84375 L 3.90625 -1.859375 C 3.90625 -1.273438 3.757812 -0.804688 3.46875 -0.453125 C 3.175781 -0.0976562 2.734375 0.078125 2.140625 0.078125 C 1.546875 0.078125 1.101562 -0.0976562 0.8125 -0.453125 C 0.519531 -0.804688 0.375 -1.273438 0.375 -1.859375 Z M 1.21875 -1.8125 C 1.21875 -1.457031 1.289062 -1.179688 1.4375 -0.984375 C 1.59375 -0.796875 1.828125 -0.703125 2.140625 -0.703125 C 2.453125 -0.703125 2.679688 -0.796875 2.828125 -0.984375 C 2.972656 -1.179688 3.046875 -1.457031 3.046875 -1.8125 L 3.046875 -5.890625 C 3.046875 -6.234375 2.972656 -6.503906 2.828125 -6.703125 C 2.679688 -6.898438 2.453125 -7 2.140625 -7 C 1.828125 -7 1.59375 -6.898438 1.4375 -6.703125 C 1.289062 -6.503906 1.21875 -6.234375 1.21875 -5.890625 Z M 1.21875 -1.8125 "/></g></g><g style="fill:#737373;fill-opacity:1;"><g transform="translate(198.444637, 266.186935)"><path style="stroke:none" d="M 0.4375 0 L 0.4375 -7.703125 L 1.296875 -7.703125 L 1.296875 -0.78125 L 3.5 -0.78125 L 3.5 0 Z M 0.4375 0 "/></g></g><g style="fill:#737373;fill-opacity:1;"><g transform="translate(206.549056, 266.186935)"><path style="stroke:none" d="M 0.375 -5.84375 C 0.375 -6.4375 0.519531 -6.90625 0.8125 -7.25 C 1.101562 -7.601562 1.546875 -7.78125 2.140625 -7.78125 C 2.734375 -7.78125 3.175781 -7.601562 3.46875 -7.25 C 3.757812 -6.90625 3.90625 -6.4375 3.90625 -5.84375 L 3.90625 -1.859375 C 3.90625 -1.273438 3.757812 -0.804688 3.46875 -0.453125 C 3.175781 -0.0976562 2.734375 0.078125 2.140625 0.078125 C 1.546875 0.078125 1.101562 -0.0976562 0.8125 -0.453125 C 0.519531 -0.804688 0.375 -1.273438 0.375 -1.859375 Z M 1.21875 -1.8125 C 1.21875 -1.457031 1.289062 -1.179688 1.4375 -0.984375 C 1.59375 -0.796875 1.828125 -0.703125 2.140625 -0.703125 C 2.453125 -0.703125 2.679688 -0.796875 2.828125 -0.984375 C 2.972656 -1.179688 3.046875 -1.457031 3.046875 -1.8125 L 3.046875 -5.890625 C 3.046875 -6.234375 2.972656 -6.503906 2.828125 -6.703125 C 2.679688 -6.898438 2.453125 -7 2.140625 -7 C 1.828125 -7 1.59375 -6.898438 1.4375 -6.703125 C 1.289062 -6.503906 1.21875 -6.234375 1.21875 -5.890625 Z M 1.21875 -1.8125 "/></g></g><g style="fill:#737373;fill-opacity:1;"><g transform="translate(215.225073, 266.186935)"><path style="stroke:none" d="M 2.09375 -7.78125 C 2.6875 -7.78125 3.125 -7.601562 3.40625 -7.25 C 3.695312 -6.894531 3.84375 -6.425781 3.84375 -5.84375 L 3.84375 -5.1875 L 3.03125 -5.1875 L 3.03125 -5.890625 C 3.03125 -6.234375 2.957031 -6.503906 2.8125 -6.703125 C 2.664062 -6.898438 2.4375 -7 2.125 -7 C 1.8125 -7 1.582031 -6.898438 1.4375 -6.703125 C 1.289062 -6.503906 1.21875 -6.234375 1.21875 -5.890625 L 1.21875 -1.8125 C 1.21875 -1.457031 1.289062 -1.179688 1.4375 -0.984375 C 1.582031 -0.796875 1.8125 -0.703125 2.125 -0.703125 C 2.4375 -0.703125 2.664062 -0.796875 2.8125 -0.984375 C 2.957031 -1.179688 3.03125 -1.457031 3.03125 -1.8125 L 3.03125 -3.359375 L 2.234375 -3.359375 L 2.234375 -4.125 L 3.84375 -4.125 L 3.84375 -1.859375 C 3.84375 -1.273438 3.695312 -0.804688 3.40625 -0.453125 C 3.125 -0.0976562 2.6875 0.078125 2.09375 0.078125 C 1.507812 0.078125 1.078125 -0.0976562 0.796875 -0.453125 C 0.515625 -0.804688 0.375 -1.273438 0.375 -1.859375 L 0.375 -5.84375 C 0.375 -6.132812 0.40625 -6.398438 0.46875 -6.640625 C 0.539062 -6.878906 0.648438 -7.082031 0.796875 -7.25 C 0.941406 -7.414062 1.117188 -7.546875 1.328125 -7.640625 C 1.546875 -7.734375 1.800781 -7.78125 2.09375 -7.78125 Z M 2.09375 -7.78125 "/></g></g><g style="fill:#737373;fill-opacity:1;"><g transform="translate(223.835126, 266.186935)"><path style="stroke:none" d="M 1.796875 -2.765625 L 0.171875 -7.703125 L 1.0625 -7.703125 L 2.265625 -3.921875 L 3.46875 -7.703125 L 4.296875 -7.703125 L 2.65625 -2.765625 L 2.65625 0 L 1.796875 0 Z M 1.796875 -2.765625 "/></g></g></g></svg>